<?xml version="1.0" standalone="no"?>
<!DOCTYPE svg PUBLIC "-//W3C//DTD SVG 20010904//EN"
 "http://www.w3.org/TR/2001/REC-SVG-20010904/DTD/svg10.dtd">
<svg version="1.0" xmlns="http://www.w3.org/2000/svg"
 width="256.000000pt" height="214.000000pt" viewBox="0 0 256.000000 214.000000"
 preserveAspectRatio="xMidYMid meet">
<metadata>
Created by potrace 1.16, written by Peter Selinger 2001-2019
</metadata>
<g transform="translate(0.000000,214.000000) scale(0.100000,-0.100000)"
fill="#000000" stroke="none">
<path d="M650 2080 c-345 -43 -591 -377 -526 -715 9 -48 32 -114 57 -165 39
-80 55 -99 290 -335 l249 -250 707 707 c389 389 705 710 701 713 -22 22 -134
49 -224 53 -120 5 -194 -11 -304 -65 -70 -34 -102 -64 -478 -437 l-402 -401
-91 90 c-100 99 -129 147 -129 215 0 80 62 173 133 199 62 24 163 6 209 -36
16 -14 27 -6 162 122 l145 137 -32 28 c-120 104 -306 160 -467 140z"/>
<path d="M2153 1458 l-273 -273 -73 73 -72 72 -140 -140 -140 -140 73 -72 72
-73 -292 -292 -293 -293 140 -140 140 -140 507 500 c278 275 527 527 551 560
110 146 161 347 126 500 -12 56 -40 130 -48 130 -3 0 -129 -123 -278 -272z"/>
</g>
</svg>
