<?xml version="1.0" standalone="no"?>
<!DOCTYPE svg PUBLIC "-//W3C//DTD SVG 20010904//EN"
 "http://www.w3.org/TR/2001/REC-SVG-20010904/DTD/svg10.dtd">
<svg version="1.0" xmlns="http://www.w3.org/2000/svg"
 width="541.000000pt" height="432.000000pt" viewBox="0 0 541.000000 432.000000"
 preserveAspectRatio="xMidYMid meet">
<metadata>
Created by potrace 1.16, written by Peter Selinger 2001-2019
</metadata>
<g transform="translate(0.000000,432.000000) scale(0.100000,-0.100000)"
fill="#000000" stroke="none">
<path d="M3760 4224 c-141 -18 -310 -68 -425 -126 -173 -88 -254 -159 -746
-654 -201 -203 -515 -517 -698 -699 l-332 -330 -167 170 c-181 184 -214 233
-234 346 -14 79 -3 153 33 230 111 235 405 312 608 158 28 -21 55 -39 59 -39
4 0 137 130 297 290 l289 289 -29 32 c-55 58 -189 150 -290 199 -347 167 -727
172 -1074 14 -351 -160 -612 -490 -692 -874 -25 -121 -30 -340 -11 -451 19
-105 60 -236 103 -328 86 -184 119 -223 628 -733 261 -263 480 -478 486 -478
17 0 2868 2857 2861 2868 -9 15 -169 71 -266 93 -83 19 -323 33 -400 23z"/>
<path d="M4455 2970 l-559 -559 -143 142 c-79 78 -146 144 -149 147 -6 6 -584
-572 -584 -585 0 -5 64 -74 143 -153 l142 -144 -585 -579 -584 -580 297 -297
297 -297 1036 1035 c569 569 1063 1070 1098 1112 274 340 348 813 190 1222
-19 50 -36 91 -37 93 -2 1 -254 -249 -562 -557z"/>
</g>
</svg>
